<?xml version="1.0" standalone="no"?>
<!DOCTYPE svg PUBLIC "-//W3C//DTD SVG 20010904//EN"
 "http://www.w3.org/TR/2001/REC-SVG-20010904/DTD/svg10.dtd">
<svg version="1.0" xmlns="http://www.w3.org/2000/svg"
 width="141.000000pt" height="142.000000pt" viewBox="0 0 141.000000 142.000000"
 preserveAspectRatio="xMidYMid meet">

<g transform="translate(0.000000,142.000000) scale(0.100000,-0.100000)"
fill="#000000" stroke="none">
<path d="M600 1293 c-55 -9 -151 -46 -204 -78 -191 -115 -295 -299 -296 -520
0 -199 110 -401 275 -502 218 -135 502 -120 692 34 102 83 150 151 200 283 25
66 28 89 28 185 0 120 -12 170 -68 284 -39 78 -136 185 -210 229 -77 46 -179
81 -259 89 l-68 6 0 -127 0 -126 -175 0 -175 0 0 -355 0 -355 169 0 169 0 1
-115 2 -115 -28 0 c-67 1 -200 45 -278 93 -159 98 -265 295 -265 492 1 303
198 533 505 590 39 7 57 13 40 13 -16 -1 -41 -3 -55 -5z"/>
</g>
</svg>
