<?xml version="1.0" standalone="no"?>
<!DOCTYPE svg PUBLIC "-//W3C//DTD SVG 20010904//EN"
 "http://www.w3.org/TR/2001/REC-SVG-20010904/DTD/svg10.dtd">
<svg version="1.0" xmlns="http://www.w3.org/2000/svg"
 width="428.000000pt" height="421.000000pt" viewBox="0 0 428.000000 421.000000"
 preserveAspectRatio="xMidYMid meet">

<g transform="translate(0.000000,421.000000) scale(0.100000,-0.100000)"
fill="#000000" stroke="none">
<path d="M1970 4099 c-467 -43 -901 -244 -1238 -573 -276 -269 -453 -573 -547
-941 -43 -168 -58 -293 -58 -485 0 -193 15 -319 58 -485 90 -352 251 -637 510
-904 209 -216 425 -359 717 -477 234 -94 468 -137 748 -137 447 0 827 121
1203 383 109 76 336 299 426 418 212 281 352 619 391 947 16 130 16 385 1 505
-45 344 -178 671 -385 944 -184 244 -432 451 -714 595 -326 166 -740 244
-1112 210z m346 -59 c71 -6 165 -17 209 -25 601 -112 1130 -504 1396 -1035
151 -302 212 -556 212 -880 -1 -525 -199 -999 -570 -1367 -182 -181 -345 -294
-573 -398 -228 -104 -443 -159 -691 -175 -418 -29 -817 67 -1175 282 -308 185
-600 504 -745 816 -135 289 -191 536 -191 842 -1 306 55 549 191 843 144 310
445 638 756 822 270 159 606 263 900 278 133 7 157 7 281 -3z"/>
<path d="M1260 2145 l0 -765 885 0 885 0 0 765 0 765 -885 0 -885 0 0 -765z"/>
</g>
</svg>
