<?xml version="1.0" standalone="no"?>
<!DOCTYPE svg PUBLIC "-//W3C//DTD SVG 20010904//EN"
 "http://www.w3.org/TR/2001/REC-SVG-20010904/DTD/svg10.dtd">
<svg version="1.0" xmlns="http://www.w3.org/2000/svg"
 width="249.000000pt" height="188.000000pt" viewBox="0 0 249.000000 188.000000"
 preserveAspectRatio="xMidYMid meet">

<g transform="translate(0.000000,188.000000) scale(0.100000,-0.100000)"
fill="#000000" stroke="none">
<path d="M1670 1385 c-546 -344 -707 -450 -713 -470 l-9 -25 -396 0 -396 0
-27 26 c-42 40 -58 19 -18 -22 l33 -34 411 0 412 0 11 25 c10 20 16 24 29 16
10 -5 322 -198 693 -430 l675 -420 3 444 c1 245 1 645 0 890 l-3 444 -705
-444z m680 -865 c0 -226 -3 -410 -6 -410 -5 0 -1251 773 -1299 806 -16 12 81
14 643 14 l662 0 0 -410z"/>
</g>
</svg>
