<?xml version="1.0" standalone="no"?>
<!DOCTYPE svg PUBLIC "-//W3C//DTD SVG 20010904//EN"
 "http://www.w3.org/TR/2001/REC-SVG-20010904/DTD/svg10.dtd">
<svg version="1.0" xmlns="http://www.w3.org/2000/svg"
 width="251.000000pt" height="191.000000pt" viewBox="0 0 251.000000 191.000000"
 preserveAspectRatio="xMidYMid meet">

<g transform="translate(0.000000,191.000000) scale(0.100000,-0.100000)"
fill="#000000" stroke="none">
<path d="M1705 1389 c-385 -243 -718 -459 -740 -480 l-41 -39 -342 0 -343 0
-53 39 c-49 37 -66 41 -66 20 0 -5 25 -27 55 -49 l54 -40 351 0 350 0 43 39
42 38 695 -433 695 -433 3 444 c1 245 1 645 0 890 l-3 444 -700 -440z m675
-450 c0 -547 -3 -830 -10 -827 -5 1 -306 187 -668 413 l-658 410 90 57 c50 31
347 219 661 417 314 198 573 360 578 361 4 0 7 -374 7 -831z"/>
</g>
</svg>
