<?xml version="1.0" standalone="no"?>
<!DOCTYPE svg PUBLIC "-//W3C//DTD SVG 20010904//EN"
 "http://www.w3.org/TR/2001/REC-SVG-20010904/DTD/svg10.dtd">
<svg version="1.0" xmlns="http://www.w3.org/2000/svg"
 width="142.000000pt" height="135.000000pt" viewBox="0 0 142.000000 135.000000"
 preserveAspectRatio="xMidYMid meet">

<g transform="translate(0.000000,135.000000) scale(0.100000,-0.100000)"
fill="#000000" stroke="none">
<path d="M541 1250 c-91 -27 -165 -74 -249 -158 -83 -83 -122 -153 -154 -277
-33 -128 -15 -276 49 -405 34 -67 169 -206 237 -243 128 -70 289 -93 424 -59
139 36 209 77 302 180 192 213 207 512 39 749 -33 47 -144 142 -200 172 -116
62 -314 80 -448 41z m755 -617 c-30 -215 -154 -394 -329 -476 -79 -38 -197
-60 -282 -54 -162 12 -272 62 -385 176 -101 102 -146 196 -165 343 l-6 48 293
3 c161 1 425 3 587 5 l293 2 -6 -47z"/>
</g>
</svg>
