<?xml version="1.0" standalone="no"?>
<!DOCTYPE svg PUBLIC "-//W3C//DTD SVG 20010904//EN"
 "http://www.w3.org/TR/2001/REC-SVG-20010904/DTD/svg10.dtd">
<svg version="1.0" xmlns="http://www.w3.org/2000/svg"
 width="419.000000pt" height="407.000000pt" viewBox="0 0 419.000000 407.000000"
 preserveAspectRatio="xMidYMid meet">

<g transform="translate(0.000000,407.000000) scale(0.100000,-0.100000)"
fill="#000000" stroke="none">
<path d="M1950 3989 c-316 -22 -611 -113 -876 -269 -421 -248 -733 -629 -879
-1075 -181 -550 -116 -1109 188 -1615 255 -424 714 -759 1215 -884 316 -80
688 -80 1004 0 492 123 930 438 1202 863 274 427 366 966 252 1466 -49 210
-179 501 -300 668 -198 276 -437 483 -725 628 -265 134 -489 197 -781 219
-145 11 -143 11 -300 -1z m305 -59 c473 -39 882 -223 1219 -550 307 -297 490
-660 557 -1105 18 -118 15 -382 -6 -506 -44 -267 -139 -521 -272 -728 -87
-135 -173 -239 -285 -346 -306 -292 -644 -459 -1073 -531 -136 -22 -452 -22
-590 1 -446 73 -796 252 -1105 564 -184 185 -304 364 -399 595 -105 256 -143
449 -143 721 1 274 45 484 157 741 96 224 233 421 406 590 339 328 765 521
1224 554 151 11 180 11 310 0z"/>
</g>
</svg>
