<?xml version="1.0" standalone="no"?>
<!DOCTYPE svg PUBLIC "-//W3C//DTD SVG 20010904//EN"
 "http://www.w3.org/TR/2001/REC-SVG-20010904/DTD/svg10.dtd">
<svg version="1.0" xmlns="http://www.w3.org/2000/svg"
 width="145.000000pt" height="146.000000pt" viewBox="0 0 145.000000 146.000000"
 preserveAspectRatio="xMidYMid meet">

<g transform="translate(0.000000,146.000000) scale(0.100000,-0.100000)"
fill="#000000" stroke="none">
<path d="M610 1323 c-13 -3 -46 -13 -72 -24 -42 -16 -48 -17 -56 -3 -7 12 -29
14 -125 12 l-117 -3 186 -268 186 -269 -59 -86 c-242 -354 -234 -344 -256
-325 -19 18 -59 75 -84 121 -7 13 -21 52 -32 85 -60 197 -19 404 108 549 23
25 41 49 41 53 0 13 -92 -101 -113 -140 -118 -220 -91 -493 66 -662 l29 -31
-51 -74 -52 -73 112 -3 c102 -2 113 -1 125 17 14 20 15 20 67 -4 129 -59 311
-58 445 2 30 13 35 13 45 -2 10 -13 30 -15 125 -13 l114 3 -129 185 c-71 102
-163 235 -205 296 l-76 111 145 202 146 202 46 -52 c25 -29 51 -62 58 -73 79
-137 108 -290 79 -424 -18 -86 -85 -228 -127 -268 -16 -15 -29 -32 -29 -36 0
-23 82 90 115 157 49 102 69 199 60 295 -8 84 -36 185 -66 233 -10 18 -23 41
-28 52 -5 12 -16 27 -25 34 -9 8 -30 31 -47 52 l-30 39 41 57 41 58 -103 3
c-66 2 -111 -2 -125 -9 -18 -10 -31 -9 -65 6 -43 18 -251 30 -308 18z m311
-29 l46 -19 -119 -170 c-66 -93 -123 -171 -128 -173 -4 -2 -18 14 -31 35 -12
21 -61 98 -107 171 -46 73 -83 134 -81 136 6 4 90 34 114 40 11 3 74 3 140 2
88 -3 132 -9 166 -22z m-57 -881 l125 -193 -32 -14 c-131 -58 -310 -60 -440
-4 -34 15 -46 25 -42 36 15 38 249 382 256 375 4 -4 64 -95 133 -200z"/>
</g>
</svg>
