<?xml version="1.0" standalone="no"?>
<!DOCTYPE svg PUBLIC "-//W3C//DTD SVG 20010904//EN"
 "http://www.w3.org/TR/2001/REC-SVG-20010904/DTD/svg10.dtd">
<svg version="1.0" xmlns="http://www.w3.org/2000/svg"
 width="163.000000pt" height="177.000000pt" viewBox="0 0 163.000000 177.000000"
 preserveAspectRatio="xMidYMid meet">

<g transform="translate(0.000000,177.000000) scale(0.100000,-0.100000)"
fill="#000000" stroke="none">
<path d="M210 1664 c0 -3 63 -96 140 -206 l140 -201 -39 -36 c-61 -58 -127
-169 -157 -269 -21 -69 -24 -248 -5 -307 19 -62 43 -117 68 -157 l22 -37 -124
-170 -124 -171 122 0 122 1 70 99 c39 55 73 100 76 100 4 0 12 -7 19 -15 7 -8
17 -15 23 -15 6 0 18 -6 26 -14 9 -7 52 -26 95 -41 113 -38 249 -38 362 0 43
15 87 34 96 42 9 8 21 13 25 10 5 -3 33 -42 63 -86 l55 -81 123 0 123 0 -12
23 c-7 12 -29 45 -49 72 -102 140 -140 197 -140 209 0 7 12 31 28 52 52 74 77
141 93 243 20 130 -13 296 -76 383 -14 18 -29 43 -34 55 -5 11 -37 47 -69 80
l-60 58 139 190 c76 104 139 190 139 192 0 2 -48 3 -108 3 l-107 0 -167 -222
c-91 -123 -188 -256 -216 -296 l-50 -72 -41 67 c-23 38 -62 97 -87 132 -51 74
-52 72 50 91 62 12 129 10 246 -5 19 -2 8 2 -25 10 -93 22 -213 16 -312 -16
-11 -4 -76 82 -183 243 l-45 67 -117 1 c-65 0 -118 -3 -118 -6z m1059 -446
c29 -28 57 -61 62 -72 5 -12 20 -36 34 -54 35 -49 64 -133 77 -224 16 -114 -3
-229 -55 -338 -18 -38 -61 -100 -69 -100 -4 0 -28 30 -54 68 -26 37 -67 94
-91 126 l-43 60 0 167 0 168 -54 3 -55 3 90 123 c50 67 94 122 98 122 4 0 31
-23 60 -52z m-691 -86 c40 -56 72 -105 72 -107 0 -3 -11 -5 -25 -5 l-25 0 0
-133 0 -133 -104 -143 c-57 -78 -108 -142 -112 -142 -13 1 -61 97 -81 161 -23
75 -23 245 1 322 30 98 96 211 155 266 19 17 38 29 41 25 4 -5 39 -54 78 -111z
m485 -699 c112 -161 112 -154 -17 -198 -113 -38 -249 -38 -362 0 -43 15 -86
33 -94 40 -8 6 -23 15 -33 18 -37 14 -29 37 48 143 42 58 79 112 82 120 4 11
34 14 142 14 l137 0 97 -137z"/>
</g>
</svg>
