<?xml version="1.0" standalone="no"?>
<!DOCTYPE svg PUBLIC "-//W3C//DTD SVG 20010904//EN"
 "http://www.w3.org/TR/2001/REC-SVG-20010904/DTD/svg10.dtd">
<svg version="1.0" xmlns="http://www.w3.org/2000/svg"
 width="264.000000pt" height="189.000000pt" viewBox="0 0 264.000000 189.000000"
 preserveAspectRatio="xMidYMid meet">

<g transform="translate(0.000000,189.000000) scale(0.100000,-0.100000)"
fill="#000000" stroke="none">
<path d="M1940 1568 c-245 -155 -452 -281 -460 -281 -8 -1 -137 88 -287 196
-149 108 -274 197 -277 197 -4 0 -5 -55 -4 -122 l3 -121 180 -133 c99 -73 181
-137 183 -142 1 -5 -66 -52 -150 -105 -84 -53 -169 -112 -188 -132 l-34 -35
-343 0 -344 0 -53 39 c-49 37 -66 41 -66 20 0 -5 25 -27 55 -49 l54 -40 351 0
350 0 43 39 42 38 112 -70 c111 -69 112 -70 90 -87 -12 -9 -82 -58 -154 -109
l-133 -93 0 -129 c0 -71 3 -129 6 -129 3 0 118 79 256 175 l250 176 482 -300
481 -300 3 140 3 140 62 -47 c34 -26 68 -52 75 -57 9 -7 12 19 12 126 l0 136
-75 56 -75 55 0 365 0 365 75 52 75 52 0 134 0 133 -72 -51 -73 -51 -5 115 -5
116 -445 -282z m420 124 l0 -97 -326 -228 c-179 -126 -331 -230 -338 -233 -19
-7 -188 118 -176 130 15 15 823 525 833 526 4 0 7 -44 7 -98z m-2 -874 l-3
-174 -237 171 c-131 93 -237 172 -237 175 0 3 107 79 237 170 l237 165 3 -167
c1 -92 1 -245 0 -340z m-935 244 c48 -35 87 -67 87 -71 0 -4 -19 -18 -42 -31
-24 -13 -82 -50 -130 -83 -48 -32 -92 -57 -96 -55 -5 1 -57 32 -114 68 l-105
65 146 92 c80 50 150 89 156 85 5 -3 49 -35 98 -70z m615 -452 l321 -235 0
-122 c1 -68 -2 -123 -5 -123 -11 0 -894 553 -894 560 0 15 233 169 245 162 7
-4 157 -113 333 -242z"/>
</g>
</svg>
